<?xml version="1.0" encoding="UTF-8" standalone="no" ?>
<!DOCTYPE svg PUBLIC "-//W3C//DTD SVG 1.1//EN" "http://www.w3.org/Graphics/SVG/1.1/DTD/svg11.dtd">
<svg xmlns="http://www.w3.org/2000/svg" xmlns:xlink="http://www.w3.org/1999/xlink" version="1.1" width="1080" height="1080" viewBox="0 0 1080 1080" xml:space="preserve">
<desc>Created with Fabric.js 5.2.4</desc>
<defs>
</defs>
<rect x="0" y="0" width="100%" height="100%" fill="transparent"></rect>
<g transform="matrix(1 0 0 1 540 540)" id="f8d1f12b-a75b-4f98-b1ac-36bac82d743f"  >
</g>
<g transform="matrix(1 0 0 1 540 540)" id="465cf5c1-0ea8-44d3-a13b-a444243f848e"  >
<rect style="stroke: none; stroke-width: 1; stroke-dasharray: none; stroke-linecap: butt; stroke-dashoffset: 0; stroke-linejoin: miter; stroke-miterlimit: 4; fill: rgb(255,255,255); fill-rule: nonzero; opacity: 1; visibility: hidden;" vector-effect="non-scaling-stroke"  x="-540" y="-540" rx="0" ry="0" width="1080" height="1080" />
</g>
<g transform="matrix(1 0 0 1 418.43 553.63)"  >
<path style="stroke: none; stroke-width: 1; stroke-dasharray: none; stroke-linecap: butt; stroke-dashoffset: 0; stroke-linejoin: miter; stroke-miterlimit: 4; fill: rgb(15,23,42); fill-rule: nonzero; opacity: 1;" vector-effect="non-scaling-stroke"  transform=" translate(-383.86, -78.03)" d="M 393.45 110.5 Q 393.42 109.15 392.59 110.21 Q 388.47 115.45 382.25 116.05 Q 370.73 117.15 363.97 108.04 Q 360.05 102.76 358.84 96.28 Q 357.37 88.42 358.35 80.48 Q 359.59 70.45 365.19 64.44 Q 371.15 58.04 380 57.91 Q 387.52 57.79 392.64 64.12 Q 393.19 64.8 393.19 63.92 L 393.25 40.41 C 393.25006772524733 40.17220955186954 393.34208269014323 39.944301431834845 393.5055241086232 39.77710273936681 C 393.66896552710324 39.60990404689878 393.8902400591974 39.5173206125413 394.12 39.52 L 409.32 39.67 C 409.5961423749154 39.67 409.82 39.89833477758629 409.82 40.18 L 410.06 114.57 C 410.0601648344298 114.85333302428184 409.83783206608473 115.08455910336076 409.56 115.09 L 394.06 115.2 C 393.7839785934955 115.20536616195139 393.5556728851536 114.97706045360957 393.55 114.69 L 393.45 110.5 Z M 375.87 74.89 Q 374.32 76.88 373.56 79.81 Q 371.4 88.16 374.18 95.9 Q 376.64 102.74 383.25 103 Q 390.33 103.28 392.64 96.09 Q 395.29 87.86 393.18 79.45 Q 391.02 70.82 382.78 71.33 Q 380.57 71.46 378.96 72.3 Q 377.16 73.24 375.87 74.89 Z" stroke-linecap="round" />
</g>
<g transform="matrix(1 0 0 1 135.74 551.97)"  >
<path style="stroke: none; stroke-width: 1; stroke-dasharray: none; stroke-linecap: butt; stroke-dashoffset: 0; stroke-linejoin: miter; stroke-miterlimit: 4; fill: rgb(61,137,246); fill-rule: nonzero; opacity: 1;" vector-effect="non-scaling-stroke"  transform=" translate(-101.18, -76.37)" d="M 126.96 105.25 Q 126.22 106.18 126.44 107.44 Q 126.84 109.75 123 109.75 L 115.25 109.75 Q 112.55 109.75 112.25 107 Q 112.02 104.85 111.29 106.5 Q 111.37 95.63 111.12 84.77 Q 110.97 78.54 109.54 75.99 Q 106.92 71.32 100.56 71.56 Q 93.88 71.81 91.75 78.75 Q 91.06 80.99 91.12 86 Q 91.25 97.63 91.25 110.02 C 91.24993095971993 110.27900179464145 91.14948733879505 110.52725261724878 90.97104355422692 110.70945311307098 C 90.79259976965879 110.89165360889317 90.55097766195641 110.99266989867368 90.3 110.99 L 75.81 110.78 C 75.49897771510385 110.77454420209922 75.24976729166907 110.51198322026616 75.25 110.19 L 75.25 42.31 C 75.25 42.16147876568986 75.30899983060463 42.01904057446643 75.41402020253554 41.91402020253553 C 75.51904057446643 41.808999830604634 75.66147876568985 41.75 75.81 41.75 L 90.7 41.75 C 91.00375661240693 41.75 91.25 41.99624338759306 91.25 42.3 L 91.18 64.73 Q 91.18 65.61 91.76 64.96 Q 97.96 58.11 107.75 58.2 Q 112.12 58.24 115.91 59.98 Q 119.53 61.64 122.27 65.01 Q 126.63 70.39 126.94 77.31 Q 127.16 82.31 126.96 105.25 Z" stroke-linecap="round" />
</g>
<g transform="matrix(1 0 0 1 771.44 554.86)"  >
<path style="stroke: none; stroke-width: 1; stroke-dasharray: none; stroke-linecap: butt; stroke-dashoffset: 0; stroke-linejoin: miter; stroke-miterlimit: 4; fill: rgb(61,137,246); fill-rule: nonzero; opacity: 1;" vector-effect="non-scaling-stroke"  transform=" translate(-736.88, -79.26)" d="M 727.17 68.09 Q 732.66 62.83 739.72 61.69 Q 746.77 60.55 752.86 63.88 Q 759.3 67.41 761.58 74.54 Q 762.75 78.2 762.75 87.59 Q 762.75 100.36 762.75 113.34 C 762.75 113.70450793488831 762.4545079348884 113.99999999999999 762.09 114 L 747.67 114 C 747.2999692176134 113.99999999999997 747 113.70003078238662 747 113.33 Q 747 100 747.04 87.25 Q 747.05 84.15 746.1 81.31 Q 745.07 78.2 742.78 76.52 Q 739 73.76 734 75.25 Q 729.71 76.53 728.11 80.25 Q 727.28 82.2 727.15 87.37 Q 726.85 99.93 727.01 113.25 C 727.0126757463026 113.44798708511031 726.9358945243382 113.63878822002158 726.7968265309902 113.77973551057698 C 726.6577585376422 113.9206828011324 726.4680051644827 114.00001808019796 726.27 114 L 711.67 114 C 711.2999692176134 113.99999999999997 711 113.70003078238662 711 113.33 L 711.06 45.56 C 711.0588125923123 45.276701497515695 711.2727234289664 45.040963024468354 711.55 45.02 Q 718.9 44.37 726.25 44.96 C 726.5426501124109 44.98103945648264 726.7695193823133 45.2122715969601 726.77 45.49 L 726.83 67.93 Q 726.84 68.41 727.17 68.09 Z" stroke-linecap="round" />
</g>
<g transform="matrix(1 0 0 1 85.98 554.1)"  >
<path style="stroke: none; stroke-width: 1; stroke-dasharray: none; stroke-linecap: butt; stroke-dashoffset: 0; stroke-linejoin: miter; stroke-miterlimit: 4; fill: rgb(61,137,246); fill-rule: nonzero; opacity: 1;" vector-effect="non-scaling-stroke"  transform=" translate(-51.42, -78.5)" d="M 59.23 96.66 Q 60.2 97.36 62.25 97.21 Q 64.82 97.02 67.32 97.57 C 67.62356969761072 97.63967924857243 67.83910447679746 97.89666302375663 67.84 98.19 L 67.97 110.23 C 67.97266511488675 110.43321980635592 67.89061119748618 110.62904426509422 67.74216757044786 110.77372982562524 C 67.59372394340956 110.91841538615624 67.39125912537867 110.99990665688911 67.18 111 Q 62.12 111 58 110.81 Q 47.66 110.35 43.8 103 Q 41.74 99.07 41.53 88.68 Q 41.38 81.01 41.52 72.8 C 41.52267424376858 72.58875172212487 41.440624412798684 72.38523354317277 41.29217983142628 72.23490991646655 C 41.14373525005387 72.08458628976031 40.941265203472895 71.99998307372418 40.73 72 L 36.05 72 C 35.6980720879951 72.00181400492781 35.4007636512482 71.73466729364799 35.36 71.38 Q 34.7 64.82 35.26 59.31 C 35.29068462790198 59.014016341089054 35.53263980485268 58.7893436767777 35.82 58.79 L 40.15 58.77 C 40.508042261283386 58.77 40.85142004369699 58.630928970717655 41.10459415460184 58.383380951166245 C 41.357768265506685 58.13583293161484 41.5 57.800085766588204 41.5 57.45 L 41.5 46.56 C 41.5 46.25072054009476 41.74624338759306 46 42.05 46 L 56.93 46.05 C 57.214879026651694 46.05522381777383 57.44457035040541 46.28049800068613 57.45 46.56 L 57.5 57.88 C 57.50546647248544 58.362018944058335 57.888905024577156 58.74991608396507 58.36 58.75 L 67.08 58.75 C 67.3222168198948 58.75021561264818 67.55423386609814 58.84263159567258 67.72360643337187 59.00635841070384 C 67.89297900064558 59.1700852257351 67.98540765721283 59.391300088722275 67.98 59.62 L 67.77 71.19 C 67.76448287357779 71.63915997186785 67.37658167241025 72.00030936605832 66.9 72 L 58.41 72 C 57.907420877653976 72 57.5 72.40742087765398 57.5 72.91 L 57.5 93.31 Q 57.5 95.43 59.23 96.66 Z" stroke-linecap="round" />
</g>
<g transform="matrix(1 0 0 1 722.56 557.17)"  >
<path style="stroke: none; stroke-width: 1; stroke-dasharray: none; stroke-linecap: butt; stroke-dashoffset: 0; stroke-linejoin: miter; stroke-miterlimit: 4; fill: rgb(61,137,246); fill-rule: nonzero; opacity: 1;" vector-effect="non-scaling-stroke"  transform=" translate(-688, -81.58)" d="M 677.59 75.47 Q 675.84 74.41 673.67 75.19 Q 671.5 75.98 671.5 73.67 L 671.5 62.79 C 671.500610000985 62.52744549267174 671.5977584748525 62.27605262033578 671.7692519170945 62.09325191816577 C 671.9407453593365 61.91045121599576 672.1719329366044 61.81185950635206 672.41 61.82 L 677.06 61.96 C 677.2622784008238 61.968272375128024 677.4590942807562 61.90451573364762 677.6045880340336 61.783585860793686 C 677.7500817873109 61.66265598793974 677.8315464021325 61.4951145558585 677.83 61.32 L 677.75 50.17 C 677.7489319954926 49.74106054973607 678.0827109080911 49.38127289070136 678.52 49.34 Q 686.31 48.65 693.19 49.26 C 693.4770302417398 49.290217726995735 693.6960712605055 49.526438433507664 693.7 49.81 L 693.74 60.94 C 693.7458238060237 61.4145404578741 694.1439774971017 61.79942235924951 694.64 61.81 L 703.69 62 C 703.9697017631794 62.005947723032314 704.1950549901702 62.25339440364971 704.2 62.56 L 704.25 74.25 C 704.2527775097809 74.39063904936867 704.2016420492816 74.52657414501574 704.1078579294573 74.62786099442613 C 704.0140738096328 74.72914784383651 703.8853347955869 74.78747718069829 703.75 74.79 L 694.7 75.07 C 694.1675781521279 75.0867727836122 693.7456545728928 75.49537246034508 693.75 75.99 L 694 97.52 Q 694.02 99.55 696.07 99.99 Q 699.49 100.74 703.5 100.48 C 703.7589719339213 100.46333221289967 704.0131747910904 100.55213480948262 704.2011814151506 100.72494897907339 C 704.3891880392109 100.89776314866417 704.4938949066291 101.13886747064106 704.49 101.39 L 704.34 113.31 C 704.3359613934001 113.59572707058584 704.1136328932087 113.83515776309982 703.82 113.87 Q 697.96 114.54 692.29 113.55 Q 685.59 112.38 682.26 108.92 Q 678.22 104.74 678 97.75 Q 677.58 84.16 677.97 76.25 C 677.9882770719245 75.92299052707493 677.8420652660368 75.62287155709495 677.59 75.47 Z" stroke-linecap="round" />
</g>
<g transform="matrix(1 0 0 1 336.41 562.57)"  >
<path style="stroke: none; stroke-width: 1; stroke-dasharray: none; stroke-linecap: butt; stroke-dashoffset: 0; stroke-linejoin: miter; stroke-miterlimit: 4; fill: rgb(15,23,42); fill-rule: nonzero; opacity: 1;" vector-effect="non-scaling-stroke"  transform=" translate(-301.85, -86.96)" d="M 294.35 107.1 Q 288.87 113.88 280.24 115.46 Q 275.29 116.36 270.38 115.82 Q 265.41 115.27 261.1 112.93 Q 248.49 106.09 247.93 90.25 Q 247.76 85.64 248.19 81.06 Q 248.66 75.86 250.34 72.21 Q 253.81 64.68 260.87 60.91 Q 267.23 57.51 275.21 57.67 Q 287.93 57.93 296.19 68.31 Q 299.72 72.75 303.65 71.11 Q 305.18 70.48 308.05 67.46 Q 309.37 66.06 310.72 64.68 Q 312.21 63.15 313.64 62.21 Q 322.82 56.19 333.25 58 Q 352.31 61.3 355.25 80.25 Q 356.04 85.35 355.52 90.97 Q 354.99 96.62 352.84 101.22 Q 344.77 118.58 323.29 115.26 Q 314.13 113.84 308.38 106.6 Q 307.11 104.99 305.63 103.59 Q 303.89 101.95 302.36 101.73 Q 300.27 101.43 298.44 102.94 Q 296.2 104.81 294.35 107.1 Z M 333.13 77.43 C 333.13 74.61887062336127 330.85112937663877 72.34000000000002 328.04 72.34 C 326.6900480667167 72.33999999999999 325.39538665006097 72.87626631745997 324.4408264837605 73.83082648376046 C 323.48626631746 74.78538665006097 322.95 76.08004806671673 322.95 77.43 C 322.95 78.77995193328329 323.48626631746 80.07461334993904 324.4408264837605 81.02917351623954 C 325.39538665006097 81.98373368254003 326.6900480667167 82.52000000000001 328.04 82.52 C 330.85112937663877 82.51999999999998 333.13 80.24112937663874 333.13 77.43 Z M 271.61 75.04 Q 270.32 77.33 270.93 81.11 Q 271.31 83.48 269.14 83.47 L 263.97 83.46 C 263.1437677222073 83.46034308582328 262.38567646849265 83.747771049317 261.86 84.26 Q 258.88 87.19 261.05 89.56 Q 262.32 90.95 265.05 91.17 Q 267.37 91.35 269.69 91.32 C 269.9923611036495 91.31517520348724 270.25873620496475 91.50778489213059 270.34 91.79 Q 270.94 93.78 270.75 96.5 Q 270.42 101.35 274.44 101.72 Q 276.41 101.89 277.66 100.75 Q 279.06 99.46 279.03 97.25 Q 279 95.12 279 92.5 C 279 91.80964406271151 279.5596440627115 91.25 280.25 91.25 Q 282.36 91.25 284.08 91.25 Q 286.36 91.25 287.69 90.33 Q 291.15 87.94 287.78 84.18 C 287.5500065149344 83.92427010623527 287.2480960934542 83.76972072381088 286.94 83.75 L 281.32 83.39 Q 278.35 83.19 278.83 80.5 Q 279.34 77.56 278.56 75.45 Q 277.79 73.36 275.73 72.84 Q 273.21 72.2 271.61 75.04 Z M 323.23 87.47 C 323.23 86.1306567263103 322.6979479561547 84.84616946617051 321.7508892449921 83.89911075500792 C 320.8038305338295 82.95205204384536 319.5193432736897 82.42 318.18 82.42 C 316.8406567263103 82.42 315.5561694661705 82.95205204384536 314.6091107550079 83.89911075500794 C 313.66205204384534 84.84616946617051 313.13 86.1306567263103 313.13 87.47 C 313.13 88.80934327368969 313.66205204384534 90.09383053382949 314.6091107550079 91.04088924499207 C 315.5561694661705 91.98794795615464 316.8406567263103 92.52 318.18 92.52 C 319.5193432736897 92.52 320.8038305338295 91.98794795615464 321.7508892449921 91.04088924499207 C 322.6979479561547 90.09383053382949 323.23 88.80934327368969 323.23 87.47 Z M 342.97 87.43 C 342.97 86.08535239651351 342.43584081934733 84.79577805811573 341.4850313806158 83.84496861938419 C 340.53422194188425 82.89415918065265 339.2446476034865 82.35999999999999 337.9 82.36 C 335.0999163183578 82.36 332.83 84.62991631835789 332.83 87.43 C 332.83 90.23008368164213 335.0999163183579 92.5 337.9 92.5 C 339.2446476034865 92.50000000000001 340.53422194188425 91.96584081934735 341.4850313806158 91.01503138061581 C 342.43584081934733 90.06422194188428 342.97 88.7746476034865 342.97 87.43 Z M 333.12 97.07 C 333.12 95.72004806671671 332.58373368254 94.42538665006096 331.6291735162395 93.47082648376046 C 330.674613349939 92.51626631745997 329.3799519332832 91.97999999999999 328.03 91.98 C 325.2188706233612 91.98000000000002 322.94 94.25887062336128 322.94 97.07 C 322.94 99.88112937663873 325.2188706233612 102.15999999999998 328.03 102.16 C 329.3799519332833 102.16000000000001 330.674613349939 101.62373368254003 331.6291735162395 100.66917351623954 C 332.58373368254 99.71461334993904 333.12 98.41995193328327 333.12 97.07 Z" stroke-linecap="round" />
</g>
<g transform="matrix(1 0 0 1 193.82 560.03)"  >
<path style="stroke: none; stroke-width: 1; stroke-dasharray: none; stroke-linecap: butt; stroke-dashoffset: 0; stroke-linejoin: miter; stroke-miterlimit: 4; fill: rgb(61,137,246); fill-rule: nonzero; opacity: 1;" vector-effect="non-scaling-stroke"  transform=" translate(-159.25, -84.44)" d="M 149.11 89.65 Q 149.57 92.83 151.62 95.2 Q 153.61 97.5 156.56 98.27 Q 162.31 99.78 166.94 94.34 C 167.40865281435808 93.79544929075065 168.0617072875904 93.48726628091069 168.72 93.5 L 183.37 93.8 C 183.53643241026273 93.80017860350256 183.69121904885122 93.88443286041012 183.78478575415122 94.025778308842 C 183.87835245945118 94.1671237572739 183.89895689784282 94.34782197835759 183.84 94.51 Q 178.67 108.66 163.94 111.19 Q 159.89 111.88 154.28 110.85 Q 137.92 107.86 134 92 Q 132.74 86.9 133.42 80.74 Q 134.81 68.12 144.56 62.06 Q 153.94 56.23 166.14 59.02 Q 180.33 62.27 184.19 76.27 Q 185.82 82.15 185.01 88.19 C 184.97029326393783 88.46998570494392 184.72769139738892 88.67853818671405 184.44 88.68 L 149.86 88.76 C 149.63954409047693 88.75976133749515 149.43021044904984 88.85773966659889 149.2862914929493 89.02852349450487 C 149.14237253684874 89.19930732241083 149.07804764063724 89.42607045797158 149.11 89.65 Z M 165.74 73.3 Q 158.1 68.06 151.56 74.31 Q 149.79 76 149.48 79.06 C 149.4657606961201 79.19324514201834 149.50786178240853 79.3262441588333 149.59571902981403 79.42556104720475 C 149.68357627721954 79.52487793557621 149.80883314168298 79.58106616743723 149.94 79.58 L 168.37 79.51 C 168.50678613591612 79.5089888086795 168.6363143646852 79.44726706285178 168.7260640975655 79.3403312109093 C 168.8158138304458 79.23339535896682 168.8572611870775 79.09140151367868 168.84 78.95 Q 168.33 75.08 165.74 73.3 Z" stroke-linecap="round" />
</g>
<g transform="matrix(1 0 0 1 254.13 573.58)"  >
<path style="stroke: none; stroke-width: 1; stroke-dasharray: none; stroke-linecap: butt; stroke-dashoffset: 0; stroke-linejoin: miter; stroke-miterlimit: 4; fill: rgb(15,23,42); fill-rule: nonzero; opacity: 1;" vector-effect="non-scaling-stroke"  transform=" translate(-219.57, -97.98)" d="M 229.5 109.16 Q 229.35 107.8 228.49 108.85 Q 225.34 112.66 220.79 113.71 Q 211.44 115.87 204.48 111.35 Q 198.89 107.72 196.08 100.52 Q 193.61 94.18 193.75 86.5 Q 193.91 77.54 196.82 71.07 Q 200.39 63.15 207.72 59.89 Q 213.24 57.45 218.52 58.39 Q 224.4 59.45 228.37 64.58 Q 229.24 65.7 229.25 64.27 L 229.29 60.06 C 229.29442926411406 59.77505655561396 229.51577428430627 59.54069124011633 229.8 59.52 Q 237.14 58.87 244.5 59.46 C 244.78450306174358 59.48078792915762 245.00594693548229 59.71959994985624 245.01 60.01 Q 245.56 86.97 245.1 113.94 Q 244.98 120.93 243.48 124.32 Q 240.97 130.02 235.17 133.41 Q 229.42 136.77 222.77 137.45 Q 209.36 138.81 197.9 131.58 C 197.13623908933235 131.10643439541195 196.88574052338083 130.1268060749944 197.34 129.39 L 203.28 119.73 C 203.42451957670912 119.49743597731417 203.73792804457958 119.42680871694898 203.99 119.57 Q 207.51 121.66 211.36 122.94 Q 215.52 124.31 219.27 123.94 Q 231.04 122.78 229.5 109.16 Z M 225.81 73.2 Q 223.05 71.3 220.06 71.56 Q 213.25 72.15 210.94 78.69 Q 208.04 86.88 210.94 94.62 Q 212.05 97.61 213.99 99.21 Q 216.31 101.14 219.3 101.44 Q 223.31 101.85 226.29 99.53 Q 229.28 97.22 230.25 92.75 Q 231.68 86.16 230.16 80.55 Q 229.43 77.82 228.75 76.5 Q 227.73 74.53 225.81 73.2 Z" stroke-linecap="round" />
</g>
<g transform="matrix(1 0 0 1 480.81 573.83)"  >
<path style="stroke: none; stroke-width: 1; stroke-dasharray: none; stroke-linecap: butt; stroke-dashoffset: 0; stroke-linejoin: miter; stroke-miterlimit: 4; fill: rgb(15,23,42); fill-rule: nonzero; opacity: 1;" vector-effect="non-scaling-stroke"  transform=" translate(-446.24, -98.24)" d="M 455.56 64.24 L 455.83 59.57 C 455.8460431048566 59.28483666101328 456.06078661114924 59.06132811364747 456.32 59.06 L 471.57 58.94 C 471.8157271891889 58.93732889406575 472.0523100166157 59.03307671532949 472.2270123651187 59.20590054395609 C 472.4017147136217 59.37872437258268 472.50001451731123 59.61425829392866 472.5 59.86 Q 472.5 84 472.5 107 Q 472.5 112.43 471.89 116.7 Q 471.14 122.02 468.97 125.84 Q 464.9 133.05 456.75 135.5 Q 439.6 140.67 424.04 131.32 C 423.7219796017825 131.1307149185842 423.48990344972 130.82711393173008 423.3958876252444 130.47737506468113 C 423.3018718007689 130.12763619763217 423.3537960405579 129.76107207082873 423.54 129.46 L 429.64 119.72 C 429.79119506272394 119.48824730757777 430.11067696086866 119.42612582738296 430.36 119.58 Q 436.94 123.72 444.44 123.64 Q 449.57 123.58 452.46 121.08 Q 456.05 117.97 455.81 112.35 Q 455.77 111.49 455.84 110.64 Q 456.15 106.97 454.26 109.23 Q 453.6 110.03 453.28 110.32 Q 449.43 113.87 445 114.25 Q 429.38 115.59 423 102 Q 420.81 97.35 420.33 91.91 Q 419.87 86.67 420.33 81.59 Q 420.83 76.04 423.15 71.02 Q 425.66 65.61 429.58 62.44 Q 436.77 56.62 447.05 58.99 Q 451.89 60.11 454.32 64.45 Q 455.43 66.43 455.56 64.24 Z M 438.94 75.44 Q 434.4 82.56 436.39 91.77 Q 438.43 101.19 446.59 101.19 Q 451.22 101.19 453.9 98.12 Q 456.59 95.03 457 90 Q 457.64 82.25 455.69 77.56 Q 453.11 71.35 446.26 71.65 Q 441.22 71.86 438.94 75.44 Z" stroke-linecap="round" />
</g>
<g transform="matrix(1 0 0 1 534.2 563.09)"  >
<path style="stroke: none; stroke-width: 1; stroke-dasharray: none; stroke-linecap: butt; stroke-dashoffset: 0; stroke-linejoin: miter; stroke-miterlimit: 4; fill: rgb(15,23,42); fill-rule: nonzero; opacity: 1;" vector-effect="non-scaling-stroke"  transform=" translate(-499.64, -87.49)" d="M 507.48 110.22 Q 507.44 109.53 506.97 110.05 Q 500.41 117.44 491.49 116.58 Q 484.53 115.91 480.2 111.49 Q 476.25 107.45 475.75 100.89 Q 474.72 87.34 489.75 83 Q 494.57 81.61 501.5 80.94 Q 504.63 80.64 505.72 79.67 Q 507.65 77.95 506.42 74.53 Q 505.62 72.31 503.42 71.46 Q 496.53 68.81 492.53 75.81 C 492.1414716313506 76.4856715291594 491.34415833030744 76.86869458554291 490.49 76.79 L 476.73 75.5 C 476.5802862664166 75.48638743371131 476.4438588908393 75.40869601178044 476.35852856252734 75.2884578218863 C 476.27319823421533 75.16821963199214 476.24803029128736 75.01820855966558 476.29 74.88 Q 480.11 62.27 491.71 59.35 Q 497.71 57.84 504.33 58.24 Q 511.24 58.65 516.69 62.31 Q 523.95 67.2 523.9 77 Q 523.8 95.97 523.69 114.93 C 523.69 115.21718806991201 523.4661423749154 115.45 523.19 115.45 L 508.31 115.45 C 508.0433519335149 115.4485702325716 507.82109004047356 115.22195026319616 507.8 114.93 L 507.48 110.22 Z M 493.28 95.07 Q 490.99 98.04 492.09 100.76 Q 493.06 103.14 495.56 104.06 Q 497.87 104.91 500.75 104 Q 504.17 102.92 505.77 100.42 Q 506.77 98.88 506.76 95.86 Q 506.76 93.46 506.7 91.06 C 506.6977289660145 90.9397234544426 506.64014270742825 90.82715577387727 506.54318885143624 90.75347084332336 C 506.4462349954443 90.67978591276946 506.3202046581644 90.65280498047657 506.2 90.68 L 497.17 92.67 Q 494.72 93.21 493.28 95.07 Z" stroke-linecap="round" />
</g>
<g transform="matrix(1 0 0 1 602.32 562.15)"  >
<path style="stroke: none; stroke-width: 1; stroke-dasharray: none; stroke-linecap: butt; stroke-dashoffset: 0; stroke-linejoin: miter; stroke-miterlimit: 4; fill: rgb(15,23,42); fill-rule: nonzero; opacity: 1;" vector-effect="non-scaling-stroke"  transform=" translate(-567.75, -86.55)" d="M 547.34 72.92 Q 545.02 74.67 545 77.48 L 544.76 114.93 C 544.7545450283343 115.24634543367137 544.5009382341764 115.49995222782927 544.19 115.5 L 528.65 115.5 C 528.29101491261 115.49999999999999 528 115.2134622398917 528 114.86 L 528.18 59.43 C 528.1796243477509 59.15223574671745 528.3977876750282 58.920982619803475 528.68 58.9 Q 536.3 58.4 543.4 59.02 C 543.7012137593591 59.04469337969249 543.9788166077772 59.1922007131502 544.1665129270971 59.42729509290434 C 544.3542092464169 59.662389472658475 544.4351480614444 59.96396462674874 544.39 60.26 Q 543.64 65.5 545.1 64.1 Q 552.56 56.93 563.02 58.32 Q 569.83 59.22 573.09 65.43 C 573.2073581773287 65.65291311895515 573.4275489160433 65.8031869334046 573.6779026265145 65.8312265489774 C 573.9282563369859 65.85926616455018 574.1762356845745 65.76142739976666 574.34 65.57 Q 581.76 56.95 593.01 58.41 Q 603.82 59.82 606.3 70.49 Q 607.51 75.67 607.51 81 Q 607.5 97.75 607.5 114.98 C 607.5 115.26718806991201 607.267188069912 115.49999999999999 606.98 115.5 L 591.46 115.5 C 591.2690441273155 115.50000000000001 591.0859093100283 115.42414307493691 590.9508831175457 115.28911688245432 C 590.8158569250631 115.15409068997174 590.74 114.97095587268447 590.74 114.78 Q 590.87 96.25 590.26 79.01 Q 589.94 70.09 581.25 71.75 Q 578.16 72.34 576.93 74.88 Q 576.27 76.26 576.19 79.72 Q 575.8 96.99 576.07 114.79 C 576.0726771040543 114.97737809234363 576.0001108489724 115.158005659711 575.8685441020455 115.2914519315941 C 575.7369773551185 115.42489820347718 575.5573972145224 115.50001912315452 575.37 115.5 L 560.39 115.5 C 560.1026731923598 115.50115917208336 559.8607259877398 115.28081439644725 559.83 114.99 Q 559.18 108.75 559.75 103.25 Q 560.12 99.64 559.5 80 Q 559.39 76.62 557.92 74.45 Q 556.4 72.21 553.41 71.56 Q 550.07 70.84 547.34 72.92 Z" stroke-linecap="round" />
</g>
<g transform="matrix(1 0 0 1 671.3 563.36)"  >
<path style="stroke: none; stroke-width: 1; stroke-dasharray: none; stroke-linecap: butt; stroke-dashoffset: 0; stroke-linejoin: miter; stroke-miterlimit: 4; fill: rgb(15,23,42); fill-rule: nonzero; opacity: 1;" vector-effect="non-scaling-stroke"  transform=" translate(-636.74, -87.77)" d="M 626.36 92.3 Q 627.37 100.64 634.43 102.65 Q 638.57 103.82 642.05 102.62 Q 646.01 101.25 648.03 96.93 C 648.2506218349175 96.45986800167995 648.7820065264265 96.21300424735688 649.3 96.34 L 661.79 99.45 C 662.1534628872334 99.54117648452734 662.4608140199238 99.7824531515133 662.6332236424382 100.11194709676316 C 662.8056332649528 100.44144104201304 662.8263279856988 100.82709645048313 662.69 101.17 Q 657.99 113.17 645.32 115.84 Q 633.34 118.35 623.31 113.19 Q 618.06 110.49 614.8 105.49 Q 612.02 101.24 610.92 95.06 Q 609.53 87.29 611.15 79.65 Q 612.87 71.52 617.39 66.39 Q 622.61 60.46 630.81 58.81 Q 635.34 57.9 640.65 58.34 Q 645.96 58.79 650.05 60.77 Q 662.15 66.65 663.26 81.5 Q 663.62 86.37 663.5 91.05 C 663.4945305549753 91.43826489302751 663.1737719363417 91.75011355003234 662.78 91.75 L 626.8 91.81 C 626.6741017176731 91.8091841629105 626.5538849731012 91.86233917612331 626.4697673701032 91.95601559764376 C 626.3856497671053 92.04969201916421 626.3456904332921 92.17491491142574 626.36 92.3 Z M 629.19 75.69 Q 627.48 77.86 627.33 80.18 C 627.3127999040969 80.46370503543301 627.5265764953589 80.70865737958736 627.81 80.73 Q 637.44 81.5 647.06 80.61 C 647.3445587642393 80.58323011714104 647.556906183206 80.33991536624175 647.54 80.06 Q 647.21 73.67 640.75 72 Q 633.54 70.13 629.19 75.69 Z" stroke-linecap="round" />
</g>
<g transform="matrix(1 0 0 1 829.75 563.46)"  >
<path style="stroke: none; stroke-width: 1; stroke-dasharray: none; stroke-linecap: butt; stroke-dashoffset: 0; stroke-linejoin: miter; stroke-miterlimit: 4; fill: rgb(61,137,246); fill-rule: nonzero; opacity: 1;" vector-effect="non-scaling-stroke"  transform=" translate(-795.19, -87.86)" d="M 784.88 92.31 Q 786.22 101.31 794.7 101.58 Q 797.33 101.66 799.13 100.64 Q 800.96 99.6 802.68 97.55 C 803.1115434134945 97.04297190396417 803.7475015984492 96.75057733616889 804.42 96.75 L 818.91 96.75 C 819.1649643993655 96.74796237855074 819.4038193589982 96.87373520056973 819.5479447512313 97.08591980580155 C 819.6920701434642 97.29810441103338 819.7227927148067 97.56920962072799 819.63 97.81 Q 812.98 115.26 793.5 114.48 Q 784.24 114.11 777.83 108.66 Q 772.85 104.41 770.54 97.56 Q 768.28 90.88 769.22 83.89 Q 770.33 75.67 774.91 70.09 Q 779.93 63.96 788.51 62.05 Q 794.6 60.69 800.51 61.73 Q 806.37 62.77 811.22 66.39 Q 822.74 75.01 820.75 91.19 C 820.7145610898538 91.47677625057115 820.47391835239 91.69163583759241 820.19 91.69 L 785.3 91.81 C 785.1764833471541 91.81129843037338 785.0596507539241 91.86687239045533 784.9792722030767 91.96256114146405 C 784.8988936522294 92.05824989247276 784.8627314329507 92.18481261394888 784.88 92.31 Z M 786.61 78.38 Q 785.74 79.67 785.24 82.15 C 785.2100597242484 82.29679300185157 785.2488489688548 82.44927180725554 785.3456967111757 82.56548909804071 C 785.4425444534967 82.68170638882589 785.587248357234 82.74941936143439 785.74 82.75 L 803.43 82.75 C 803.8033890741807 82.74895603403426 804.1546385480902 82.57271707806838 804.3786728682506 82.274004651188 C 804.6027071884109 81.9752922243076 804.6735467334435 81.58874582168391 804.57 81.23 Q 803 75.85 798.42 74.62 Q 795.2 73.75 792.08 74.47 Q 788.73 75.24 786.61 78.38 Z" stroke-linecap="round" />
</g>
<g transform="matrix(1 0 0 1 886.13 563.51)"  >
<path style="stroke: none; stroke-width: 1; stroke-dasharray: none; stroke-linecap: butt; stroke-dashoffset: 0; stroke-linejoin: miter; stroke-miterlimit: 4; fill: rgb(61,137,246); fill-rule: nonzero; opacity: 1;" vector-effect="non-scaling-stroke"  transform=" translate(-851.56, -87.9)" d="M 878.1459 90.2964 C 878.1227794513766 103.53463474562247 867.3723347715923 114.24760567418035 854.1341 114.2245 L 848.8941 114.2154 C 842.5368577583993 114.20432361174565 836.4443927604794 111.66829124891727 831.9569826979853 107.16520313787677 C 827.469572635491 102.66211502683628 824.9548042793688 96.56084220788799 824.9659 90.20360000000001 L 824.9741 85.5036 C 824.9972205486234 72.26536525437754 835.7476652284078 61.55239432581966 848.9859 61.5755 L 854.2259 61.5846 C 860.5831422416007 61.595676388254354 866.6756072395206 64.13170875108274 871.1630173020147 68.63479686212324 C 875.650427364509 73.13788497316372 878.1651957206312 79.23915779211201 878.1541 85.59639999999999 L 878.1459 90.2964 Z M 851.3744 100.8793 C 857.3442674951434 100.94180735045714 862.2445094745049 95.19489130922538 862.3194 88.0432 C 862.3553681506006 84.60883255411859 861.2510166667521 81.30320058017715 859.2492905635238 78.85350626105753 C 857.2475644602956 76.4038119419379 854.512434937945 75.01072175100128 851.6456 74.9807 C 845.6757325048566 74.91819264954286 840.7754905254951 80.66510869077462 840.7006 87.8168 C 840.6646318493994 91.2511674458814 841.7689833332479 94.55679941982285 843.7707094364762 97.00649373894248 C 845.7724355397044 99.4561880580621 848.5075650620549 100.84927824899871 851.3744 100.8793 Z" stroke-linecap="round" />
</g>
<g transform="matrix(1 0 0 1 965.07 575.84)"  >
<path style="stroke: none; stroke-width: 1; stroke-dasharray: none; stroke-linecap: butt; stroke-dashoffset: 0; stroke-linejoin: miter; stroke-miterlimit: 4; fill: rgb(61,137,246); fill-rule: nonzero; opacity: 1;" vector-effect="non-scaling-stroke"  transform=" translate(-930.51, -100.24)" d="M 901.06 69.83 Q 901.07 70.44 901.43 69.95 Q 904.79 65.36 909.72 63.09 Q 912.66 61.74 917.52 61.7 Q 925.91 61.63 934.31 61.92 C 934.6205076951716 61.931845691713114 934.8917028528926 62.120503192736464 935 62.4 L 946.75 93.76 Q 947 94.42 947.24 93.77 L 959 62.25 C 959.0721317069181 62.05969410491654 959.2485597372638 61.93539253808205 959.44 61.94 L 975.7 62.04 C 975.8116015000696 62.040440013337346 975.9140805956442 62.1002298296826 975.9725428126325 62.19901081700747 C 976.0310050296206 62.297791804332334 976.0375691241034 62.42224737808402 975.99 62.53 L 943.81 138.33 C 943.6541263452106 138.69872414245575 943.2704666590172 138.93603941226607 942.84 138.93 L 927.26 138.76 C 927.0961777478857 138.75858908938855 926.9429683881882 138.67673869767376 926.8538062798655 138.54299553518962 C 926.7646441715426 138.40925237270548 926.7518930180039 138.24216199456572 926.82 138.1 L 937.99 113.1 C 938.2456000932912 112.53870482472661 938.2564694406747 111.8974133291019 938.02 111.33 L 917.94 63.22 Q 917.72 62.7 917.48 63.17 Q 917.18 63.78 917.25 64.5 Q 917.9 71.04 917.12 77.56 C 917.086572242745 77.84909883178538 916.850499838873 78.07252449973564 916.56 78.09 Q 911.3 78.39 910.25 78.5 Q 901.04 79.47 901.02 89 Q 901 101.25 901 113.15 C 901 113.37543401636363 900.9104466856894 113.59163484232775 900.7510407640085 113.75104076400858 C 900.5916348423277 113.91044668568941 900.3754340163636 114 900.15 114 L 885.85 114 C 885.6245659836364 114 885.4083651576723 113.91044668568941 885.2489592359915 113.75104076400858 C 885.0895533143106 113.59163484232775 885 113.37543401636363 885 113.15 L 885 62.59 C 884.9991933737821 62.31773433279429 885.2085397641417 62.090942409904585 885.48 62.07 Q 893.33 61.39 900.45 62.02 C 900.7269847869702 62.040963167607664 900.9407921498138 62.272224192724146 900.94 62.55 L 901.06 69.83 Z" stroke-linecap="round" />
</g>
</svg>